<mxfile host="app.diagrams.net" modified="2022-01-30T20:17:37.943Z" agent="5.0 (Windows NT 10.0; Win64; x64) AppleWebKit/537.36 (KHTML, like Gecko) Chrome/97.0.4692.99 Safari/537.36" etag="-ysctbvnGm0AhtH5OPDt" version="16.5.2" type="github">
  <diagram id="kgpKYQtTHZ0yAKxKKP6v" name="Page-1">
    <mxGraphModel dx="1673" dy="929" grid="1" gridSize="10" guides="1" tooltips="1" connect="1" arrows="1" fold="1" page="1" pageScale="1" pageWidth="850" pageHeight="1100" math="0" shadow="0">
      <root>
        <mxCell id="0" />
        <mxCell id="1" parent="0" />
        <mxCell id="3nuBFxr9cyL0pnOWT2aG-1" value="GameView" style="shape=umlLifeline;perimeter=lifelinePerimeter;container=1;collapsible=0;recursiveResize=0;rounded=0;shadow=0;strokeWidth=1;" parent="1" vertex="1">
          <mxGeometry x="120" y="80" width="100" height="540" as="geometry" />
        </mxCell>
        <mxCell id="3nuBFxr9cyL0pnOWT2aG-2" value="" style="points=[];perimeter=orthogonalPerimeter;rounded=0;shadow=0;strokeWidth=1;" parent="3nuBFxr9cyL0pnOWT2aG-1" vertex="1">
          <mxGeometry x="45" y="70" width="10" height="410" as="geometry" />
        </mxCell>
        <mxCell id="3nuBFxr9cyL0pnOWT2aG-3" value="dispatch" style="verticalAlign=bottom;startArrow=oval;endArrow=block;startSize=8;shadow=0;strokeWidth=1;" parent="3nuBFxr9cyL0pnOWT2aG-1" target="3nuBFxr9cyL0pnOWT2aG-2" edge="1">
          <mxGeometry relative="1" as="geometry">
            <mxPoint x="-15" y="70" as="sourcePoint" />
          </mxGeometry>
        </mxCell>
        <mxCell id="3nuBFxr9cyL0pnOWT2aG-4" value="" style="points=[];perimeter=orthogonalPerimeter;rounded=0;shadow=0;strokeWidth=1;" parent="3nuBFxr9cyL0pnOWT2aG-1" vertex="1">
          <mxGeometry x="51" y="110" width="10" height="40" as="geometry" />
        </mxCell>
        <mxCell id="3nuBFxr9cyL0pnOWT2aG-8" value="newWord()" style="verticalAlign=bottom;endArrow=block;entryX=1.029;entryY=0.118;shadow=0;strokeWidth=1;entryDx=0;entryDy=0;entryPerimeter=0;exitX=1.086;exitY=-0.002;exitDx=0;exitDy=0;exitPerimeter=0;" parent="3nuBFxr9cyL0pnOWT2aG-1" source="3nuBFxr9cyL0pnOWT2aG-2" target="3nuBFxr9cyL0pnOWT2aG-4" edge="1">
          <mxGeometry x="-0.0588" y="-14" relative="1" as="geometry">
            <mxPoint x="155" y="80" as="sourcePoint" />
            <Array as="points">
              <mxPoint x="90" y="90" />
            </Array>
            <mxPoint x="19" y="1" as="offset" />
          </mxGeometry>
        </mxCell>
        <mxCell id="IozX4o-ycV07DBW3fFyZ-1" value="" style="endArrow=classic;html=1;rounded=0;exitX=1.114;exitY=0.377;exitDx=0;exitDy=0;exitPerimeter=0;entryX=1.105;entryY=0.4;entryDx=0;entryDy=0;entryPerimeter=0;" edge="1" parent="3nuBFxr9cyL0pnOWT2aG-1" target="IozX4o-ycV07DBW3fFyZ-2">
          <mxGeometry width="50" height="50" relative="1" as="geometry">
            <mxPoint x="56.139999999999986" y="263.63" as="sourcePoint" />
            <mxPoint x="100" y="252" as="targetPoint" />
            <Array as="points">
              <mxPoint x="90" y="282" />
            </Array>
          </mxGeometry>
        </mxCell>
        <mxCell id="IozX4o-ycV07DBW3fFyZ-3" value="startTimer()" style="edgeLabel;html=1;align=center;verticalAlign=middle;resizable=0;points=[];" vertex="1" connectable="0" parent="IozX4o-ycV07DBW3fFyZ-1">
          <mxGeometry x="-0.342" y="1" relative="1" as="geometry">
            <mxPoint x="32" y="13" as="offset" />
          </mxGeometry>
        </mxCell>
        <mxCell id="IozX4o-ycV07DBW3fFyZ-2" value="" style="points=[];perimeter=orthogonalPerimeter;rounded=0;shadow=0;strokeWidth=1;" vertex="1" parent="3nuBFxr9cyL0pnOWT2aG-1">
          <mxGeometry x="51" y="302" width="10" height="10" as="geometry" />
        </mxCell>
        <mxCell id="3nuBFxr9cyL0pnOWT2aG-5" value="ConfigurationService" style="shape=umlLifeline;perimeter=lifelinePerimeter;container=1;collapsible=0;recursiveResize=0;rounded=0;shadow=0;strokeWidth=1;" parent="1" vertex="1">
          <mxGeometry x="310" y="80" width="130" height="510" as="geometry" />
        </mxCell>
        <mxCell id="3nuBFxr9cyL0pnOWT2aG-6" value="" style="points=[];perimeter=orthogonalPerimeter;rounded=0;shadow=0;strokeWidth=1;" parent="3nuBFxr9cyL0pnOWT2aG-5" vertex="1">
          <mxGeometry x="60" y="80" width="10" height="350" as="geometry" />
        </mxCell>
        <mxCell id="IozX4o-ycV07DBW3fFyZ-14" value="" style="points=[];perimeter=orthogonalPerimeter;rounded=0;shadow=0;strokeWidth=1;" vertex="1" parent="3nuBFxr9cyL0pnOWT2aG-5">
          <mxGeometry x="54" y="120" width="10" height="40" as="geometry" />
        </mxCell>
        <mxCell id="IozX4o-ycV07DBW3fFyZ-21" value="" style="points=[];perimeter=orthogonalPerimeter;rounded=0;shadow=0;strokeWidth=1;" vertex="1" parent="3nuBFxr9cyL0pnOWT2aG-5">
          <mxGeometry x="54" y="170" width="10" height="40" as="geometry" />
        </mxCell>
        <mxCell id="IozX4o-ycV07DBW3fFyZ-5" value="TimeManagement&#xa;(Thread)" style="shape=umlLifeline;perimeter=lifelinePerimeter;container=1;collapsible=0;recursiveResize=0;rounded=0;shadow=0;strokeWidth=1;" vertex="1" parent="1">
          <mxGeometry x="490" y="80" width="130" height="580" as="geometry" />
        </mxCell>
        <mxCell id="IozX4o-ycV07DBW3fFyZ-6" value="" style="points=[];perimeter=orthogonalPerimeter;rounded=0;shadow=0;strokeWidth=1;" vertex="1" parent="IozX4o-ycV07DBW3fFyZ-5">
          <mxGeometry x="60" y="80" width="10" height="440" as="geometry" />
        </mxCell>
        <mxCell id="IozX4o-ycV07DBW3fFyZ-8" value="" style="points=[];perimeter=orthogonalPerimeter;rounded=0;shadow=0;strokeWidth=1;" vertex="1" parent="IozX4o-ycV07DBW3fFyZ-5">
          <mxGeometry x="55" y="311" width="10" height="32" as="geometry" />
        </mxCell>
        <mxCell id="IozX4o-ycV07DBW3fFyZ-7" value="" style="endArrow=classic;html=1;rounded=0;exitX=1.133;exitY=0.655;exitDx=0;exitDy=0;exitPerimeter=0;" edge="1" parent="1">
          <mxGeometry width="50" height="50" relative="1" as="geometry">
            <mxPoint x="176.33000000000004" y="383.44999999999993" as="sourcePoint" />
            <mxPoint x="550" y="383" as="targetPoint" />
            <Array as="points">
              <mxPoint x="360" y="383" />
            </Array>
          </mxGeometry>
        </mxCell>
        <mxCell id="IozX4o-ycV07DBW3fFyZ-9" value="new" style="edgeLabel;html=1;align=center;verticalAlign=middle;resizable=0;points=[];" vertex="1" connectable="0" parent="IozX4o-ycV07DBW3fFyZ-7">
          <mxGeometry x="0.6368" y="1" relative="1" as="geometry">
            <mxPoint as="offset" />
          </mxGeometry>
        </mxCell>
        <mxCell id="IozX4o-ycV07DBW3fFyZ-11" value="" style="endArrow=classic;html=1;rounded=0;exitX=0.5;exitY=0.737;exitDx=0;exitDy=0;exitPerimeter=0;entryX=-0.1;entryY=0.179;entryDx=0;entryDy=0;entryPerimeter=0;" edge="1" parent="1">
          <mxGeometry width="50" height="50" relative="1" as="geometry">
            <mxPoint x="175" y="404.03" as="sourcePoint" />
            <mxPoint x="543" y="403.72799999999995" as="targetPoint" />
            <Array as="points">
              <mxPoint x="205" y="404" />
            </Array>
          </mxGeometry>
        </mxCell>
        <mxCell id="IozX4o-ycV07DBW3fFyZ-12" value="start()" style="edgeLabel;html=1;align=center;verticalAlign=middle;resizable=0;points=[];" vertex="1" connectable="0" parent="IozX4o-ycV07DBW3fFyZ-11">
          <mxGeometry x="0.6368" y="1" relative="1" as="geometry">
            <mxPoint as="offset" />
          </mxGeometry>
        </mxCell>
        <mxCell id="IozX4o-ycV07DBW3fFyZ-13" value="" style="endArrow=classic;html=1;rounded=0;entryX=-0.271;entryY=0.111;entryDx=0;entryDy=0;entryPerimeter=0;" edge="1" parent="1" target="IozX4o-ycV07DBW3fFyZ-14">
          <mxGeometry width="50" height="50" relative="1" as="geometry">
            <mxPoint x="180" y="204" as="sourcePoint" />
            <mxPoint x="330" y="205" as="targetPoint" />
          </mxGeometry>
        </mxCell>
        <mxCell id="IozX4o-ycV07DBW3fFyZ-15" value="getRandomWord()" style="edgeLabel;html=1;align=center;verticalAlign=middle;resizable=0;points=[];" vertex="1" connectable="0" parent="IozX4o-ycV07DBW3fFyZ-13">
          <mxGeometry x="0.2991" y="1" relative="1" as="geometry">
            <mxPoint as="offset" />
          </mxGeometry>
        </mxCell>
        <mxCell id="IozX4o-ycV07DBW3fFyZ-16" value="" style="endArrow=none;dashed=1;html=1;rounded=0;exitX=1.143;exitY=0.775;exitDx=0;exitDy=0;exitPerimeter=0;entryX=-0.271;entryY=0.525;entryDx=0;entryDy=0;entryPerimeter=0;startArrow=classic;startFill=1;" edge="1" parent="1" source="3nuBFxr9cyL0pnOWT2aG-4" target="IozX4o-ycV07DBW3fFyZ-14">
          <mxGeometry width="50" height="50" relative="1" as="geometry">
            <mxPoint x="300" y="270" as="sourcePoint" />
            <mxPoint x="350" y="220" as="targetPoint" />
          </mxGeometry>
        </mxCell>
        <mxCell id="IozX4o-ycV07DBW3fFyZ-17" value="word" style="edgeLabel;html=1;align=center;verticalAlign=middle;resizable=0;points=[];" vertex="1" connectable="0" parent="IozX4o-ycV07DBW3fFyZ-16">
          <mxGeometry x="-0.6166" y="1" relative="1" as="geometry">
            <mxPoint as="offset" />
          </mxGeometry>
        </mxCell>
        <mxCell id="IozX4o-ycV07DBW3fFyZ-18" value="" style="points=[];perimeter=orthogonalPerimeter;rounded=0;shadow=0;strokeWidth=1;" vertex="1" parent="1">
          <mxGeometry x="171" y="446" width="10" height="10" as="geometry" />
        </mxCell>
        <mxCell id="IozX4o-ycV07DBW3fFyZ-19" value="" style="endArrow=classic;html=1;rounded=0;exitX=1.114;exitY=0.377;exitDx=0;exitDy=0;exitPerimeter=0;entryX=1.143;entryY=0.486;entryDx=0;entryDy=0;entryPerimeter=0;" edge="1" parent="1" target="IozX4o-ycV07DBW3fFyZ-18">
          <mxGeometry width="50" height="50" relative="1" as="geometry">
            <mxPoint x="176.14" y="425.63" as="sourcePoint" />
            <mxPoint x="182.05000000000007" y="468" as="targetPoint" />
            <Array as="points">
              <mxPoint x="210" y="433" />
            </Array>
          </mxGeometry>
        </mxCell>
        <mxCell id="IozX4o-ycV07DBW3fFyZ-20" value="style()" style="edgeLabel;html=1;align=center;verticalAlign=middle;resizable=0;points=[];" vertex="1" connectable="0" parent="IozX4o-ycV07DBW3fFyZ-19">
          <mxGeometry x="-0.342" y="1" relative="1" as="geometry">
            <mxPoint x="32" y="4" as="offset" />
          </mxGeometry>
        </mxCell>
        <mxCell id="IozX4o-ycV07DBW3fFyZ-22" value="" style="endArrow=classic;html=1;rounded=0;entryX=-0.245;entryY=0.49;entryDx=0;entryDy=0;entryPerimeter=0;" edge="1" parent="1" source="3nuBFxr9cyL0pnOWT2aG-2" target="IozX4o-ycV07DBW3fFyZ-33">
          <mxGeometry width="50" height="50" relative="1" as="geometry">
            <mxPoint x="180" y="255" as="sourcePoint" />
            <mxPoint x="650" y="255" as="targetPoint" />
          </mxGeometry>
        </mxCell>
        <mxCell id="IozX4o-ycV07DBW3fFyZ-23" value="addRound()" style="edgeLabel;html=1;align=center;verticalAlign=middle;resizable=0;points=[];" vertex="1" connectable="0" parent="IozX4o-ycV07DBW3fFyZ-22">
          <mxGeometry x="0.1097" y="-1" relative="1" as="geometry">
            <mxPoint as="offset" />
          </mxGeometry>
        </mxCell>
        <mxCell id="IozX4o-ycV07DBW3fFyZ-28" value="Team" style="shape=umlLifeline;perimeter=lifelinePerimeter;container=1;collapsible=0;recursiveResize=0;rounded=0;shadow=0;strokeWidth=1;" vertex="1" parent="1">
          <mxGeometry x="663" y="80" width="130" height="580" as="geometry" />
        </mxCell>
        <mxCell id="IozX4o-ycV07DBW3fFyZ-29" value="" style="points=[];perimeter=orthogonalPerimeter;rounded=0;shadow=0;strokeWidth=1;" vertex="1" parent="IozX4o-ycV07DBW3fFyZ-28">
          <mxGeometry x="60" y="79" width="10" height="440" as="geometry" />
        </mxCell>
        <mxCell id="IozX4o-ycV07DBW3fFyZ-33" value="" style="points=[];perimeter=orthogonalPerimeter;rounded=0;shadow=0;strokeWidth=1;" vertex="1" parent="IozX4o-ycV07DBW3fFyZ-28">
          <mxGeometry x="55" y="180" width="10" height="30" as="geometry" />
        </mxCell>
        <mxCell id="IozX4o-ycV07DBW3fFyZ-35" value="Person" style="shape=umlLifeline;perimeter=lifelinePerimeter;container=1;collapsible=0;recursiveResize=0;rounded=0;shadow=0;strokeWidth=1;" vertex="1" parent="1">
          <mxGeometry x="829" y="80" width="130" height="580" as="geometry" />
        </mxCell>
        <mxCell id="IozX4o-ycV07DBW3fFyZ-36" value="" style="points=[];perimeter=orthogonalPerimeter;rounded=0;shadow=0;strokeWidth=1;" vertex="1" parent="IozX4o-ycV07DBW3fFyZ-35">
          <mxGeometry x="60" y="79" width="10" height="440" as="geometry" />
        </mxCell>
        <mxCell id="IozX4o-ycV07DBW3fFyZ-37" value="" style="points=[];perimeter=orthogonalPerimeter;rounded=0;shadow=0;strokeWidth=1;" vertex="1" parent="IozX4o-ycV07DBW3fFyZ-35">
          <mxGeometry x="1021" y="455" width="10" height="30" as="geometry" />
        </mxCell>
        <mxCell id="IozX4o-ycV07DBW3fFyZ-40" value="" style="points=[];perimeter=orthogonalPerimeter;rounded=0;shadow=0;strokeWidth=1;" vertex="1" parent="IozX4o-ycV07DBW3fFyZ-35">
          <mxGeometry x="55" y="230" width="10" height="30" as="geometry" />
        </mxCell>
        <mxCell id="IozX4o-ycV07DBW3fFyZ-38" value="" style="endArrow=classic;html=1;rounded=0;entryX=-0.155;entryY=0.305;entryDx=0;entryDy=0;entryPerimeter=0;" edge="1" parent="1" target="IozX4o-ycV07DBW3fFyZ-40">
          <mxGeometry width="50" height="50" relative="1" as="geometry">
            <mxPoint x="176" y="318.70000000000005" as="sourcePoint" />
            <mxPoint x="810" y="319" as="targetPoint" />
          </mxGeometry>
        </mxCell>
        <mxCell id="IozX4o-ycV07DBW3fFyZ-39" value="addRound()" style="edgeLabel;html=1;align=center;verticalAlign=middle;resizable=0;points=[];" vertex="1" connectable="0" parent="IozX4o-ycV07DBW3fFyZ-38">
          <mxGeometry x="0.1097" y="-1" relative="1" as="geometry">
            <mxPoint as="offset" />
          </mxGeometry>
        </mxCell>
      </root>
    </mxGraphModel>
  </diagram>
</mxfile>
